<svg width="26" height="26" viewBox="0 0 26 26" fill="none" xmlns="http://www.w3.org/2000/svg">
<path d="M5.00127 19.6679H20.9952M19.6623 25C20.0158 25 20.3548 24.8596 20.6048 24.6096C20.8547 24.3596 20.9952 24.0205 20.9952 23.667V16.5352C20.9952 15.926 21.4163 15.4102 21.9641 15.1476C23.0983 14.6064 24.005 13.682 24.524 12.5373C25.043 11.3927 25.1411 10.1015 24.8009 8.89157C24.4608 7.68166 23.7042 6.63081 22.6648 5.92449C21.6253 5.21817 20.3699 4.90179 19.1199 5.03117C18.6051 3.83438 17.7509 2.81473 16.6629 2.09828C15.5749 1.38183 14.3009 1 12.9982 1C11.6956 1 10.4215 1.38183 9.33352 2.09828C8.24553 2.81473 7.39134 3.83438 6.87655 5.03117C5.62714 4.90269 4.37249 5.21953 3.33382 5.92582C2.29514 6.6321 1.53914 7.68248 1.1991 8.89177C0.859063 10.101 0.956826 11.3916 1.47515 12.5358C1.99348 13.68 2.89909 14.6045 4.0323 15.1462C4.5801 15.4102 5.00127 15.926 5.00127 16.5339V23.667C5.00127 24.0205 5.14169 24.3596 5.39164 24.6096C5.6416 24.8596 5.98061 25 6.33409 25H19.6623Z" stroke="#12100C" stroke-width="2" stroke-linecap="round" stroke-linejoin="round"/>
</svg>
