<svg width="26" height="22" viewBox="0 0 26 22" fill="none" xmlns="http://www.w3.org/2000/svg">
<path d="M22.3333 20.8333C22.9521 20.8333 23.5456 20.5875 23.9832 20.1499C24.4208 19.7123 24.6666 19.1188 24.6666 18.5V6.83333C24.6666 6.2145 24.4208 5.621 23.9832 5.18342C23.5456 4.74583 22.9521 4.5 22.3333 4.5H13.1166C12.7264 4.50383 12.3414 4.40971 11.9969 4.22628C11.6525 4.04284 11.3595 3.77594 11.1449 3.45L10.1999 2.05C9.98746 1.72738 9.69822 1.46256 9.35817 1.2793C9.01811 1.09603 8.63788 1.00006 8.25159 1H3.66659C3.04775 1 2.45425 1.24583 2.01667 1.68342C1.57908 2.121 1.33325 2.71449 1.33325 3.33333V18.5C1.33325 19.1188 1.57908 19.7123 2.01667 20.1499C2.45425 20.5875 3.04775 20.8333 3.66659 20.8333H22.3333Z" stroke="#5A2C16" stroke-width="2" stroke-linecap="round" stroke-linejoin="round"/>
</svg>
